# xmcd
# 
# Track frame offsets:
#     150
#     11054
#     21248
#     32106
#     42027
#     52768
#     64480
#     74372
#     84588
#     95778
#     106102
#     116112
#     125786
#     135446
#     144783
#     158091
#     168181
# 
# Disc length: 2408
# 
# Revision: 6
# Processed by: cddbd v1.5.2PL0 Copyright (c) Steve Scherf et al.
# Submitted via: fre:ac v1.0.27
# 
DISCID=e3096611
DTITLE=Chet Atkins - 8 Classic Albums [Disc 1]
DYEAR=2013
DGENRE=Oldies
TTITLE0=Third Man Theme
TTITLE1=St Louis Blues
TTITLE2=Lover Come Back To Me
TTITLE3=Nobody's Sweetheart
TTITLE4=Stephen Foster Medley
TTITLE5=Hangover Blues
TTITLE6=Imagination
TTITLE7=Black Mountain Rag
TTITLE8=Galloping On Guitar
TTITLE9=Blue Gypsy
TTITLE10=On By Jingo
TTITLE11=Hello Ma Baby
TTITLE12=Memphis Blues
TTITLE13=Alice Blue Gown
TTITLE14=Indian Love Call
TTITLE15=Main Street Breakdown
TTITLE16=Boogie Man Boogie
EXTD=
EXTT0=
EXTT1=
EXTT2=
EXTT3=
EXTT4=
EXTT5=
EXTT6=
EXTT7=
EXTT8=
EXTT9=
EXTT10=
EXTT11=
EXTT12=
EXTT13=
EXTT14=
EXTT15=
EXTT16=
PLAYORDER=
